# xmcd CD database file
#
# Track frame offsets:
#	225
#	15571
#	31480
#	53146
#	67994
#	79261
#	92530
#	106810
#	120869
#	133054
#	143941
#	160772
#	172912
#	189268
#
# Disc length: 2723 seconds
#
# Revision: 3
# Processed by: cddbd v1.5.1PL2 Copyright (c) Steve Scherf et al.
# Submitted via: CDex 1.51
#
DISCID=a80aa00e
DTITLE=Diverse - Country Line Dance CD1
DYEAR=1900
DGENRE=LineDance
TTITLE0=Reckless
TTITLE1=When My Ship Comes In
TTITLE2=That Summer
TTITLE3=She's Not The Cheatin' Kind
TTITLE4=Holdin' Heaven
TTITLE5=It Sure Is Monday
TTITLE6=Home
TTITLE7=One More Last Chance
TTITLE8=Wild One
TTITLE9=Chattahoochee
TTITLE10=Should've Been A Cowboy
TTITLE11=My Second Home
TTITLE12=Blame It In Your Heart
TTITLE13=The Heart Won't Lie
EXTD=
EXTT0=
EXTT1=
EXTT2=
EXTT3=
EXTT4=
EXTT5=
EXTT6=
EXTT7=
EXTT8=
EXTT9=
EXTT10=
EXTT11=
EXTT12=
EXTT13=
PLAYORDER=
